<?xml version="1.0" standalone="no"?>
<!DOCTYPE svg PUBLIC "-//W3C//DTD SVG 20010904//EN"
 "http://www.w3.org/TR/2001/REC-SVG-20010904/DTD/svg10.dtd">
<svg version="1.0" xmlns="http://www.w3.org/2000/svg"
 width="700.000000pt" height="700.000000pt" viewBox="0 0 700.000000 700.000000"
 preserveAspectRatio="xMidYMid meet">
<metadata>
Created by potrace 1.11, written by Peter Selinger 2001-2013
</metadata>
<g transform="translate(0.000000,700.000000) scale(0.100000,-0.100000)"
fill="#000000" stroke="none">
<path d="M935 6989 c-141 -21 -380 -112 -441 -170 -11 -10 -24 -19 -29 -19
-10 0 -109 -83 -159 -135 -90 -92 -216 -294 -240 -385 -4 -14 -11 -34 -16 -45
-5 -11 -17 -51 -27 -90 -16 -66 -18 -212 -19 -2620 -3 -2510 -2 -2551 17
-2645 71 -338 285 -615 596 -769 71 -35 185 -75 244 -86 13 -3 47 -9 74 -14
32 -7 964 -9 2595 -8 l2545 2 95 27 c264 75 458 204 616 413 67 89 149 264
181 385 l28 105 0 2565 0 2565 -23 90 c-75 287 -229 507 -462 660 -113 74
-201 114 -336 152 l-99 28 -2540 1 c-1398 1 -2567 -2 -2600 -7z m4345 -763
c296 -41 559 -196 739 -437 97 -129 161 -276 198 -452 15 -75 16 -231 17
-1837 l0 -1755 -22 -100 c-51 -235 -151 -416 -319 -576 -178 -170 -385 -266
-633 -296 -30 -3 -829 -6 -1775 -6 -1273 -1 -1737 3 -1785 11 -105 19 -110 20
-189 47 -167 55 -290 133 -422 264 -188 189 -290 400 -317 661 -4 36 -7 841
-6 1790 2 1854 -1 1752 49 1927 76 265 292 519 550 648 130 65 283 108 420
117 94 7 3445 0 3495 -6z"/>
<path d="M3375 5893 c-268 -28 -528 -154 -720 -348 -218 -219 -332 -481 -351
-800 -1 -22 -2 -42 -3 -45 -1 -3 -16 -6 -33 -6 -234 -4 -471 -82 -668 -222
-157 -111 -319 -311 -398 -492 -70 -161 -96 -295 -96 -495 1 -186 33 -329 113
-500 185 -394 601 -667 1033 -679 46 -1 52 -7 54 -59 23 -499 351 -931 824
-1086 36 -12 81 -24 100 -27 19 -3 38 -8 42 -10 27 -17 294 -24 396 -11 70 9
90 14 202 50 472 150 817 608 824 1095 0 23 3 43 6 43 3 1 22 3 43 4 110 8
173 17 260 39 388 99 704 395 836 785 50 147 71 395 47 556 -9 57 -43 181 -68
245 -21 54 -87 190 -98 200 -3 3 -23 32 -45 65 -56 83 -206 231 -295 290 -192
129 -397 197 -630 210 -25 2 -47 3 -50 4 -3 0 -6 20 -6 44 -5 295 -134 590
-354 808 -182 181 -403 292 -665 336 -36 5 -258 10 -300 6z m296 -821 c110
-54 175 -126 214 -239 24 -67 24 -72 25 -492 0 -234 2 -426 3 -428 2 -1 193
-3 425 -3 352 -1 430 -3 474 -17 115 -34 206 -111 261 -222 29 -60 32 -74 32
-161 0 -107 -14 -163 -59 -230 -63 -95 -159 -160 -265 -180 -31 -6 -228 -10
-462 -10 l-409 0 0 -417 c0 -251 -5 -436 -11 -463 -27 -120 -112 -226 -227
-282 -63 -31 -73 -33 -172 -33 -99 0 -110 2 -172 33 -74 36 -145 100 -182 165
-53 91 -55 114 -56 569 0 232 -2 423 -3 425 -2 1 -190 3 -418 3 -239 1 -433 5
-459 11 -120 27 -226 112 -282 226 -31 64 -33 74 -33 173 0 99 2 110 33 171
62 128 168 208 307 234 11 2 208 4 437 4 l417 1 3 443 c3 425 4 444 24 494 47
114 137 200 254 243 44 16 74 20 146 17 79 -2 100 -7 155 -35z"/>
</g>
</svg>
